<?xml version="1.0" encoding="UTF-8"?>
<svg xmlns="http://www.w3.org/2000/svg" fill="none" height="800" viewBox="0 0 24 24" width="800">
  <path clip-rule="evenodd" d="m8.1 20.5c0 1.5 1.482 2.5 2.64 2.5.806 0 .869-.613.993-1.82.055-.53.121-1.174.267-1.93.386-2.002 1.72-4.56 2.996-5.325v-5.925c.004-2.25-.746-3-3.996-3h-3.773c-2.176 0-2.703 1.432-2.899 1.964a15.85 15.85 0 0 1 -.013.036c-.114.306-.358.546-.638.82-.31.306-.664.653-.927 1.18-.311.623-.27 1.177-.233 1.67.023.299.044.575-.017.83-.064.27-.146.475-.225.671-.143.356-.275.686-.275 1.329 0 1.5.748 2.498 2.315 2.498h4.185s-.4 3.002-.4 4.502zm10.4-5.5a1.5 1.5 0 0 0 1.5-1.5v-7a1.5 1.5 0 0 0 -3 0v7a1.5 1.5 0 0 0 1.5 1.5z" fill="#ff2600" fill-rule="evenodd"></path>
</svg>
